# xmcd
#
# Track frame offsets:
#	150
#	29090
#	45842
#	67915
#	85052
#	98937
#	106145
#	125962
#	131029
#	156929
#	166026
#	182249
#	200606
#	220889
#	246095
#	271540
#	292922
#	306759
#	328770
#	346897
#
# Disc length: 4691 seconds
#
# Revision: 2
# Processed by: cddbd v1.4PL0 Copyright (c) Steve Scherf et al.
# Submitted via: audiograbber 1.82.02
#
DISCID=1e125114
DTITLE=Blackmore's Night - Ghost Of A Rose
DYEAR=2003
DGENRE=Celtic
TTITLE0=Way To Mandalay
TTITLE1=3 Black Crows
TTITLE2=Diamonds And Rust
TTITLE3=Cartouche
TTITLE4=Queen For A Day (Part 1)
TTITLE5=Queen For A Day (Part 2)
TTITLE6=Ivory Tower
TTITLE7=Nur Eine Minute
TTITLE8=Ghost Of A Rose
TTITLE9=Mr Peagram's Morris And Sword
TTITLE10=Loreley
TTITLE11=Where Aer We Going From Here
TTITLE12=Rainbow Blues
TTITLE13=All For One
TTITLE14=Dandelion Wine
TTITLE15=Mid Winter's Night (Live Acoustic)
TTITLE16=Way to Mandalay (Radio Edit)
TTITLE17=Shadow Of The Moon
TTITLE18=Play, Ministrel, Play
TTITLE19=Memmingen
EXTD=Added by Sergio G. Gorichenko, mysoft@ukrpost.net
EXTT0=
EXTT1=
EXTT2=
EXTT3=
EXTT4=
EXTT5=
EXTT6=
EXTT7=
EXTT8=
EXTT9=
EXTT10=
EXTT11=
EXTT12=
EXTT13=
EXTT14=
EXTT15=
EXTT16=
EXTT17=
EXTT18=
EXTT19=
PLAYORDER=
